<svg xmlns="http://www.w3.org/2000/svg" xmlns:xlink="http://www.w3.org/1999/xlink" width="500" zoomAndPan="magnify" viewBox="0 0 375 374.999991" height="500" preserveAspectRatio="xMidYMid meet" version="1.0"><defs><g/><clipPath id="217e81d2e3"><path d="M 127.046875 123 L 234 123 L 234 216.75 L 127.046875 216.75 Z M 127.046875 123 " clip-rule="nonzero"/></clipPath><clipPath id="6f9028e73c"><path d="M 132 37.5 L 247.796875 37.5 L 247.796875 169 L 132 169 Z M 132 37.5 " clip-rule="nonzero"/></clipPath></defs><g fill="#000000" fill-opacity="1"><g transform="translate(31.321852, 271.74625)"><g><path d="M 15.09375 -1.71875 L 6.765625 -17.703125 L 6.765625 0 L 2.171875 0 L 2.171875 -24.0625 L 8.5625 -24.0625 L 15.15625 -11.140625 L 21.765625 -24.0625 L 28.15625 -24.0625 L 28.15625 0 L 23.4375 0 L 23.4375 -17.671875 Z M 15.09375 -1.71875 "/></g></g></g><g fill="#000000" fill-opacity="1"><g transform="translate(63.076844, 271.74625)"><g><path d="M 2.171875 0 L 2.171875 -24.0625 L 7.15625 -24.0625 L 7.15625 0 Z M 2.171875 0 "/></g></g></g><g fill="#000000" fill-opacity="1"><g transform="translate(73.868159, 271.74625)"><g><path d="M 26.0625 -12 C 26.0625 -10.226562 25.753906 -8.582031 25.140625 -7.0625 C 24.535156 -5.539062 23.695312 -4.234375 22.625 -3.140625 C 21.5625 -2.054688 20.285156 -1.195312 18.796875 -0.5625 C 17.304688 0.0625 15.703125 0.375 13.984375 0.375 C 12.203125 0.375 10.53125 0.0546875 8.96875 -0.578125 C 7.414062 -1.222656 6.070312 -2.097656 4.9375 -3.203125 C 3.800781 -4.316406 2.898438 -5.628906 2.234375 -7.140625 C 1.566406 -8.660156 1.234375 -10.289062 1.234375 -12.03125 C 1.234375 -13.769531 1.5625 -15.394531 2.21875 -16.90625 C 2.875 -18.425781 3.765625 -19.738281 4.890625 -20.84375 C 6.023438 -21.957031 7.375 -22.832031 8.9375 -23.46875 C 10.5 -24.113281 12.160156 -24.4375 13.921875 -24.4375 C 15.910156 -24.4375 17.785156 -24.035156 19.546875 -23.234375 C 21.316406 -22.429688 22.773438 -21.332031 23.921875 -19.9375 L 20.453125 -16.734375 C 19.609375 -17.742188 18.628906 -18.519531 17.515625 -19.0625 C 16.398438 -19.601562 15.203125 -19.875 13.921875 -19.875 C 12.847656 -19.875 11.84375 -19.671875 10.90625 -19.265625 C 9.976562 -18.867188 9.175781 -18.316406 8.5 -17.609375 C 7.832031 -16.910156 7.304688 -16.085938 6.921875 -15.140625 C 6.546875 -14.191406 6.359375 -13.15625 6.359375 -12.03125 C 6.359375 -10.90625 6.550781 -9.859375 6.9375 -8.890625 C 7.332031 -7.929688 7.875 -7.101562 8.5625 -6.40625 C 9.25 -5.707031 10.066406 -5.15625 11.015625 -4.75 C 11.960938 -4.351562 12.976562 -4.15625 14.0625 -4.15625 C 15.757812 -4.15625 17.21875 -4.625 18.4375 -5.5625 C 19.664062 -6.507812 20.429688 -7.710938 20.734375 -9.171875 L 13.609375 -9.171875 L 13.609375 -13.515625 L 26.0625 -13.515625 Z M 26.0625 -12 "/></g></g></g><g fill="#000000" fill-opacity="1"><g transform="translate(102.598878, 271.74625)"><g><path d="M -0.140625 0 L 9.765625 -24.0625 L 15.53125 -24.0625 L 25.296875 0 L 19.90625 0 L 17.46875 -6.328125 L 7.53125 -6.328125 L 5.046875 0 Z M 9.078125 -10.3125 L 15.953125 -10.3125 L 12.546875 -19.1875 Z M 9.078125 -10.3125 "/></g></g></g><g fill="#000000" fill-opacity="1"><g transform="translate(129.19886, 271.74625)"><g><path d="M 0.109375 -3.8125 L 2.953125 -7.390625 C 4.347656 -6.171875 5.691406 -5.28125 6.984375 -4.71875 C 8.285156 -4.164062 9.660156 -3.890625 11.109375 -3.890625 C 12.597656 -3.890625 13.785156 -4.160156 14.671875 -4.703125 C 15.566406 -5.253906 16.015625 -5.988281 16.015625 -6.90625 C 16.015625 -7.726562 15.710938 -8.367188 15.109375 -8.828125 C 14.503906 -9.285156 13.488281 -9.628906 12.0625 -9.859375 L 7.28125 -10.6875 C 5.21875 -11.03125 3.65625 -11.75 2.59375 -12.84375 C 1.53125 -13.945312 1 -15.375 1 -17.125 C 1 -19.363281 1.851562 -21.132812 3.5625 -22.4375 C 5.269531 -23.75 7.578125 -24.40625 10.484375 -24.40625 C 12.222656 -24.40625 13.976562 -24.109375 15.75 -23.515625 C 17.53125 -22.921875 19.085938 -22.09375 20.421875 -21.03125 L 17.734375 -17.328125 C 16.453125 -18.304688 15.191406 -19.03125 13.953125 -19.5 C 12.710938 -19.976562 11.441406 -20.21875 10.140625 -20.21875 C 8.804688 -20.21875 7.738281 -19.96875 6.9375 -19.46875 C 6.132812 -18.976562 5.734375 -18.320312 5.734375 -17.5 C 5.734375 -16.757812 6 -16.179688 6.53125 -15.765625 C 7.0625 -15.359375 7.941406 -15.066406 9.171875 -14.890625 L 13.71875 -14.125 C 16.101562 -13.738281 17.894531 -12.976562 19.09375 -11.84375 C 20.300781 -10.707031 20.90625 -9.210938 20.90625 -7.359375 C 20.90625 -5.015625 19.976562 -3.144531 18.125 -1.75 C 16.28125 -0.351562 13.828125 0.34375 10.765625 0.34375 C 8.835938 0.34375 6.9375 -0.0195312 5.0625 -0.75 C 3.195312 -1.488281 1.546875 -2.507812 0.109375 -3.8125 Z M 0.109375 -3.8125 "/></g></g></g><g fill="#000000" fill-opacity="1"><g transform="translate(152.362178, 271.74625)"><g/></g></g><g fill="#000000" fill-opacity="1"><g transform="translate(160.713443, 271.74625)"><g><path d="M 0.109375 -3.8125 L 2.953125 -7.390625 C 4.347656 -6.171875 5.691406 -5.28125 6.984375 -4.71875 C 8.285156 -4.164062 9.660156 -3.890625 11.109375 -3.890625 C 12.597656 -3.890625 13.785156 -4.160156 14.671875 -4.703125 C 15.566406 -5.253906 16.015625 -5.988281 16.015625 -6.90625 C 16.015625 -7.726562 15.710938 -8.367188 15.109375 -8.828125 C 14.503906 -9.285156 13.488281 -9.628906 12.0625 -9.859375 L 7.28125 -10.6875 C 5.21875 -11.03125 3.65625 -11.75 2.59375 -12.84375 C 1.53125 -13.945312 1 -15.375 1 -17.125 C 1 -19.363281 1.851562 -21.132812 3.5625 -22.4375 C 5.269531 -23.75 7.578125 -24.40625 10.484375 -24.40625 C 12.222656 -24.40625 13.976562 -24.109375 15.75 -23.515625 C 17.53125 -22.921875 19.085938 -22.09375 20.421875 -21.03125 L 17.734375 -17.328125 C 16.453125 -18.304688 15.191406 -19.03125 13.953125 -19.5 C 12.710938 -19.976562 11.441406 -20.21875 10.140625 -20.21875 C 8.804688 -20.21875 7.738281 -19.96875 6.9375 -19.46875 C 6.132812 -18.976562 5.734375 -18.320312 5.734375 -17.5 C 5.734375 -16.757812 6 -16.179688 6.53125 -15.765625 C 7.0625 -15.359375 7.941406 -15.066406 9.171875 -14.890625 L 13.71875 -14.125 C 16.101562 -13.738281 17.894531 -12.976562 19.09375 -11.84375 C 20.300781 -10.707031 20.90625 -9.210938 20.90625 -7.359375 C 20.90625 -5.015625 19.976562 -3.144531 18.125 -1.75 C 16.28125 -0.351562 13.828125 0.34375 10.765625 0.34375 C 8.835938 0.34375 6.9375 -0.0195312 5.0625 -0.75 C 3.195312 -1.488281 1.546875 -2.507812 0.109375 -3.8125 Z M 0.109375 -3.8125 "/></g></g></g><g fill="#000000" fill-opacity="1"><g transform="translate(183.876761, 271.74625)"><g><path d="M 2.171875 0 L 2.171875 -24.0625 L 20.65625 -24.0625 L 20.65625 -19.734375 L 7.15625 -19.734375 L 7.15625 -14.234375 L 16.046875 -14.234375 L 16.046875 -10.03125 L 7.15625 -10.03125 L 7.15625 -4.328125 L 20.796875 -4.328125 L 20.796875 0 Z M 2.171875 0 "/></g></g></g><g fill="#000000" fill-opacity="1"><g transform="translate(207.486837, 271.74625)"><g><path d="M 14.203125 -4.265625 C 15.460938 -4.265625 16.640625 -4.523438 17.734375 -5.046875 C 18.835938 -5.578125 19.8125 -6.335938 20.65625 -7.328125 L 23.921875 -4.09375 C 22.773438 -2.738281 21.3125 -1.660156 19.53125 -0.859375 C 17.757812 -0.0546875 15.9375 0.34375 14.0625 0.34375 C 12.25 0.34375 10.554688 0.0234375 8.984375 -0.609375 C 7.421875 -1.253906 6.066406 -2.125 4.921875 -3.21875 C 3.773438 -4.320312 2.875 -5.628906 2.21875 -7.140625 C 1.5625 -8.660156 1.234375 -10.289062 1.234375 -12.03125 C 1.234375 -13.769531 1.566406 -15.398438 2.234375 -16.921875 C 2.898438 -18.453125 3.804688 -19.765625 4.953125 -20.859375 C 6.097656 -21.960938 7.453125 -22.832031 9.015625 -23.46875 C 10.585938 -24.113281 12.269531 -24.4375 14.0625 -24.4375 C 15.988281 -24.4375 17.851562 -24.03125 19.65625 -23.21875 C 21.46875 -22.40625 22.9375 -21.3125 24.0625 -19.9375 L 20.6875 -16.609375 C 19.84375 -17.660156 18.847656 -18.46875 17.703125 -19.03125 C 16.554688 -19.59375 15.34375 -19.875 14.0625 -19.875 C 12.976562 -19.875 11.960938 -19.671875 11.015625 -19.265625 C 10.066406 -18.867188 9.25 -18.316406 8.5625 -17.609375 C 7.875 -16.910156 7.332031 -16.085938 6.9375 -15.140625 C 6.550781 -14.191406 6.359375 -13.15625 6.359375 -12.03125 C 6.359375 -10.925781 6.554688 -9.898438 6.953125 -8.953125 C 7.359375 -8.003906 7.910156 -7.1875 8.609375 -6.5 C 9.304688 -5.8125 10.128906 -5.265625 11.078125 -4.859375 C 12.035156 -4.460938 13.078125 -4.265625 14.203125 -4.265625 Z M 14.203125 -4.265625 "/></g></g></g><g fill="#000000" fill-opacity="1"><g transform="translate(233.605676, 271.74625)"><g><path d="M 23.09375 -10.421875 C 23.09375 -8.785156 22.84375 -7.296875 22.34375 -5.953125 C 21.84375 -4.617188 21.125 -3.488281 20.1875 -2.5625 C 19.257812 -1.632812 18.132812 -0.914062 16.8125 -0.40625 C 15.5 0.09375 14.039062 0.34375 12.4375 0.34375 C 10.8125 0.34375 9.335938 0.09375 8.015625 -0.40625 C 6.703125 -0.914062 5.585938 -1.632812 4.671875 -2.5625 C 3.753906 -3.488281 3.039062 -4.613281 2.53125 -5.9375 C 2.03125 -7.269531 1.78125 -8.765625 1.78125 -10.421875 L 1.78125 -24.0625 L 6.765625 -24.0625 L 6.765625 -10.421875 C 6.765625 -8.554688 7.285156 -7.0625 8.328125 -5.9375 C 9.378906 -4.820312 10.765625 -4.265625 12.484375 -4.265625 C 14.203125 -4.265625 15.566406 -4.820312 16.578125 -5.9375 C 17.597656 -7.0625 18.109375 -8.554688 18.109375 -10.421875 L 18.109375 -24.0625 L 23.09375 -24.0625 Z M 23.09375 -10.421875 "/></g></g></g><g fill="#000000" fill-opacity="1"><g transform="translate(259.965096, 271.74625)"><g><path d="M 2.171875 0 L 2.171875 -24.0625 L 13.921875 -24.0625 C 15.140625 -24.0625 16.253906 -23.878906 17.265625 -23.515625 C 18.285156 -23.148438 19.160156 -22.640625 19.890625 -21.984375 C 20.628906 -21.328125 21.203125 -20.539062 21.609375 -19.625 C 22.023438 -18.707031 22.234375 -17.703125 22.234375 -16.609375 C 22.234375 -15.085938 21.800781 -13.734375 20.9375 -12.546875 C 20.082031 -11.359375 18.945312 -10.476562 17.53125 -9.90625 L 22.859375 0 L 17.296875 0 L 12.578125 -9.21875 L 7.15625 -9.21875 L 7.15625 0 Z M 13.46875 -19.765625 L 7.15625 -19.765625 L 7.15625 -13.296875 L 13.46875 -13.296875 C 14.59375 -13.296875 15.492188 -13.59375 16.171875 -14.1875 C 16.847656 -14.789062 17.1875 -15.570312 17.1875 -16.53125 C 17.1875 -17.5 16.847656 -18.28125 16.171875 -18.875 C 15.492188 -19.46875 14.59375 -19.765625 13.46875 -19.765625 Z M 13.46875 -19.765625 "/></g></g></g><g fill="#000000" fill-opacity="1"><g transform="translate(284.743638, 271.74625)"><g><path d="M 2.171875 0 L 2.171875 -24.0625 L 7.15625 -24.0625 L 7.15625 0 Z M 2.171875 0 "/></g></g></g><g fill="#000000" fill-opacity="1"><g transform="translate(295.534953, 271.74625)"><g><path d="M 0.625 -19.65625 L 0.625 -24.0625 L 21.796875 -24.0625 L 21.796875 -19.65625 L 13.71875 -19.65625 L 13.71875 0 L 8.734375 0 L 8.734375 -19.65625 Z M 0.625 -19.65625 "/></g></g></g><g fill="#000000" fill-opacity="1"><g transform="translate(319.385592, 271.74625)"><g><path d="M 9.625 0 L 9.625 -9.21875 L -0.203125 -24.0625 L 5.53125 -24.0625 L 12.265625 -13.609375 L 19.046875 -24.0625 L 24.46875 -24.0625 L 14.609375 -9.171875 L 14.609375 0 Z M 9.625 0 "/></g></g></g><g fill="#4797cd" fill-opacity="1"><g transform="translate(99.211259, 305.807612)"><g><path d="M 5.890625 -1.765625 C 6.421875 -1.765625 6.910156 -1.875 7.359375 -2.09375 C 7.816406 -2.3125 8.222656 -2.628906 8.578125 -3.046875 L 9.9375 -1.703125 C 9.457031 -1.140625 8.847656 -0.691406 8.109375 -0.359375 C 7.378906 -0.0234375 6.625 0.140625 5.84375 0.140625 C 5.09375 0.140625 4.390625 0.0078125 3.734375 -0.25 C 3.078125 -0.519531 2.507812 -0.882812 2.03125 -1.34375 C 1.5625 -1.800781 1.191406 -2.34375 0.921875 -2.96875 C 0.648438 -3.59375 0.515625 -4.269531 0.515625 -5 C 0.515625 -5.71875 0.648438 -6.394531 0.921875 -7.03125 C 1.203125 -7.664062 1.578125 -8.210938 2.046875 -8.671875 C 2.523438 -9.128906 3.09375 -9.488281 3.75 -9.75 C 4.40625 -10.019531 5.101562 -10.15625 5.84375 -10.15625 C 6.644531 -10.15625 7.421875 -9.984375 8.171875 -9.640625 C 8.921875 -9.304688 9.53125 -8.851562 10 -8.28125 L 8.59375 -6.890625 C 8.238281 -7.335938 7.820312 -7.675781 7.34375 -7.90625 C 6.875 -8.132812 6.375 -8.25 5.84375 -8.25 C 5.394531 -8.25 4.972656 -8.164062 4.578125 -8 C 4.179688 -7.832031 3.835938 -7.601562 3.546875 -7.3125 C 3.265625 -7.03125 3.039062 -6.691406 2.875 -6.296875 C 2.71875 -5.898438 2.640625 -5.46875 2.640625 -5 C 2.640625 -4.539062 2.722656 -4.113281 2.890625 -3.71875 C 3.054688 -3.320312 3.285156 -2.976562 3.578125 -2.6875 C 3.867188 -2.40625 4.210938 -2.179688 4.609375 -2.015625 C 5.003906 -1.847656 5.429688 -1.765625 5.890625 -1.765625 Z M 5.890625 -1.765625 "/></g></g></g><g fill="#4797cd" fill-opacity="1"><g transform="translate(111.82934, 305.807612)"><g><path d="M 4 0 L 4 -3.828125 L -0.078125 -10 L 2.296875 -10 L 5.09375 -5.65625 L 7.90625 -10 L 10.171875 -10 L 6.0625 -3.8125 L 6.0625 0 Z M 4 0 "/></g></g></g><g fill="#4797cd" fill-opacity="1"><g transform="translate(124.276138, 305.807612)"><g><path d="M 0.90625 -10 L 5.59375 -10 C 6.59375 -10 7.40625 -9.742188 8.03125 -9.234375 C 8.664062 -8.722656 8.984375 -8.0625 8.984375 -7.25 C 8.984375 -6.8125 8.875 -6.410156 8.65625 -6.046875 C 8.4375 -5.691406 8.132812 -5.394531 7.75 -5.15625 C 8.226562 -4.925781 8.609375 -4.613281 8.890625 -4.21875 C 9.179688 -3.820312 9.328125 -3.382812 9.328125 -2.90625 C 9.328125 -2.03125 9.003906 -1.328125 8.359375 -0.796875 C 7.710938 -0.265625 6.867188 0 5.828125 0 L 0.90625 0 Z M 5.46875 -8.28125 L 2.96875 -8.28125 L 2.96875 -5.90625 L 5.46875 -5.90625 C 5.90625 -5.90625 6.253906 -6.015625 6.515625 -6.234375 C 6.785156 -6.453125 6.921875 -6.738281 6.921875 -7.09375 C 6.921875 -7.457031 6.785156 -7.742188 6.515625 -7.953125 C 6.253906 -8.171875 5.90625 -8.28125 5.46875 -8.28125 Z M 5.671875 -1.71875 C 6.148438 -1.71875 6.53125 -1.832031 6.8125 -2.0625 C 7.09375 -2.289062 7.234375 -2.609375 7.234375 -3.015625 C 7.234375 -3.390625 7.09375 -3.695312 6.8125 -3.9375 C 6.53125 -4.175781 6.148438 -4.296875 5.671875 -4.296875 L 2.96875 -4.296875 L 2.96875 -1.71875 Z M 5.671875 -1.71875 "/></g></g></g><g fill="#4797cd" fill-opacity="1"><g transform="translate(136.50882, 305.807612)"><g><path d="M 0.90625 0 L 0.90625 -10 L 8.578125 -10 L 8.578125 -8.203125 L 2.96875 -8.203125 L 2.96875 -5.90625 L 6.671875 -5.90625 L 6.671875 -4.171875 L 2.96875 -4.171875 L 2.96875 -1.796875 L 8.640625 -1.796875 L 8.640625 0 Z M 0.90625 0 "/></g></g></g><g fill="#4797cd" fill-opacity="1"><g transform="translate(148.084906, 305.807612)"><g><path d="M 0.90625 0 L 0.90625 -10 L 5.78125 -10 C 6.289062 -10 6.753906 -9.921875 7.171875 -9.765625 C 7.597656 -9.617188 7.960938 -9.40625 8.265625 -9.125 C 8.566406 -8.851562 8.800781 -8.523438 8.96875 -8.140625 C 9.144531 -7.765625 9.234375 -7.347656 9.234375 -6.890625 C 9.234375 -6.265625 9.054688 -5.703125 8.703125 -5.203125 C 8.347656 -4.710938 7.875 -4.347656 7.28125 -4.109375 L 9.5 0 L 7.1875 0 L 5.234375 -3.828125 L 2.96875 -3.828125 L 2.96875 0 Z M 5.59375 -8.21875 L 2.96875 -8.21875 L 2.96875 -5.53125 L 5.59375 -5.53125 C 6.0625 -5.53125 6.4375 -5.648438 6.71875 -5.890625 C 7 -6.140625 7.140625 -6.46875 7.140625 -6.875 C 7.140625 -7.269531 7 -7.59375 6.71875 -7.84375 C 6.4375 -8.09375 6.0625 -8.21875 5.59375 -8.21875 Z M 5.59375 -8.21875 "/></g></g></g><g fill="#4797cd" fill-opacity="1"><g transform="translate(160.146306, 305.807612)"><g/></g></g><g fill="#4797cd" fill-opacity="1"><g transform="translate(165.384793, 305.807612)"><g><path d="M 0.046875 -1.578125 L 1.234375 -3.078125 C 1.804688 -2.566406 2.363281 -2.191406 2.90625 -1.953125 C 3.445312 -1.722656 4.015625 -1.609375 4.609375 -1.609375 C 5.234375 -1.609375 5.726562 -1.722656 6.09375 -1.953125 C 6.46875 -2.179688 6.65625 -2.488281 6.65625 -2.875 C 6.65625 -3.21875 6.523438 -3.484375 6.265625 -3.671875 C 6.015625 -3.859375 5.597656 -4 5.015625 -4.09375 L 3.03125 -4.4375 C 2.175781 -4.582031 1.523438 -4.882812 1.078125 -5.34375 C 0.640625 -5.800781 0.421875 -6.390625 0.421875 -7.109375 C 0.421875 -8.046875 0.773438 -8.785156 1.484375 -9.328125 C 2.191406 -9.867188 3.148438 -10.140625 4.359375 -10.140625 C 5.078125 -10.140625 5.804688 -10.015625 6.546875 -9.765625 C 7.285156 -9.515625 7.929688 -9.171875 8.484375 -8.734375 L 7.375 -7.203125 C 6.832031 -7.609375 6.304688 -7.90625 5.796875 -8.09375 C 5.285156 -8.289062 4.757812 -8.390625 4.21875 -8.390625 C 3.664062 -8.390625 3.222656 -8.285156 2.890625 -8.078125 C 2.554688 -7.878906 2.390625 -7.609375 2.390625 -7.265625 C 2.390625 -6.960938 2.5 -6.722656 2.71875 -6.546875 C 2.9375 -6.378906 3.300781 -6.257812 3.8125 -6.1875 L 5.703125 -5.875 C 6.691406 -5.707031 7.4375 -5.390625 7.9375 -4.921875 C 8.4375 -4.453125 8.6875 -3.832031 8.6875 -3.0625 C 8.6875 -2.082031 8.300781 -1.300781 7.53125 -0.71875 C 6.769531 -0.144531 5.75 0.140625 4.46875 0.140625 C 3.664062 0.140625 2.875 -0.0078125 2.09375 -0.3125 C 1.320312 -0.613281 0.640625 -1.035156 0.046875 -1.578125 Z M 0.046875 -1.578125 "/></g></g></g><g fill="#4797cd" fill-opacity="1"><g transform="translate(176.775331, 305.807612)"><g><path d="M 0.90625 0 L 0.90625 -10 L 8.578125 -10 L 8.578125 -8.203125 L 2.96875 -8.203125 L 2.96875 -5.90625 L 6.671875 -5.90625 L 6.671875 -4.171875 L 2.96875 -4.171875 L 2.96875 -1.796875 L 8.640625 -1.796875 L 8.640625 0 Z M 0.90625 0 "/></g></g></g><g fill="#4797cd" fill-opacity="1"><g transform="translate(188.351417, 305.807612)"><g><path d="M 10.828125 -4.984375 C 10.828125 -4.253906 10.695312 -3.570312 10.4375 -2.9375 C 10.1875 -2.300781 9.835938 -1.753906 9.390625 -1.296875 C 8.953125 -0.847656 8.425781 -0.492188 7.8125 -0.234375 C 7.195312 0.0234375 6.53125 0.15625 5.8125 0.15625 C 5.070312 0.15625 4.375 0.0234375 3.71875 -0.234375 C 3.070312 -0.503906 2.515625 -0.867188 2.046875 -1.328125 C 1.578125 -1.796875 1.203125 -2.34375 0.921875 -2.96875 C 0.648438 -3.59375 0.515625 -4.269531 0.515625 -5 C 0.515625 -5.71875 0.648438 -6.390625 0.921875 -7.015625 C 1.191406 -7.648438 1.5625 -8.195312 2.03125 -8.65625 C 2.5 -9.125 3.054688 -9.488281 3.703125 -9.75 C 4.359375 -10.019531 5.050781 -10.15625 5.78125 -10.15625 C 6.613281 -10.15625 7.394531 -9.988281 8.125 -9.65625 C 8.851562 -9.320312 9.457031 -8.863281 9.9375 -8.28125 L 8.5 -6.953125 C 8.144531 -7.367188 7.734375 -7.6875 7.265625 -7.90625 C 6.804688 -8.132812 6.3125 -8.25 5.78125 -8.25 C 5.332031 -8.25 4.914062 -8.164062 4.53125 -8 C 4.144531 -7.832031 3.8125 -7.601562 3.53125 -7.3125 C 3.25 -7.03125 3.03125 -6.691406 2.875 -6.296875 C 2.71875 -5.898438 2.640625 -5.46875 2.640625 -5 C 2.640625 -4.53125 2.71875 -4.09375 2.875 -3.6875 C 3.039062 -3.289062 3.265625 -2.945312 3.546875 -2.65625 C 3.835938 -2.375 4.179688 -2.148438 4.578125 -1.984375 C 4.972656 -1.816406 5.394531 -1.734375 5.84375 -1.734375 C 6.539062 -1.734375 7.144531 -1.925781 7.65625 -2.3125 C 8.164062 -2.707031 8.484375 -3.207031 8.609375 -3.8125 L 5.65625 -3.8125 L 5.65625 -5.609375 L 10.828125 -5.609375 Z M 10.828125 -4.984375 "/></g></g></g><g fill="#4797cd" fill-opacity="1"><g transform="translate(202.054308, 305.807612)"><g><path d="M 9.59375 -4.328125 C 9.59375 -3.648438 9.488281 -3.03125 9.28125 -2.46875 C 9.070312 -1.914062 8.773438 -1.445312 8.390625 -1.0625 C 8.003906 -0.675781 7.535156 -0.378906 6.984375 -0.171875 C 6.441406 0.0351562 5.835938 0.140625 5.171875 0.140625 C 4.492188 0.140625 3.878906 0.0351562 3.328125 -0.171875 C 2.785156 -0.378906 2.320312 -0.675781 1.9375 -1.0625 C 1.5625 -1.445312 1.269531 -1.914062 1.0625 -2.46875 C 0.851562 -3.019531 0.75 -3.640625 0.75 -4.328125 L 0.75 -10 L 2.8125 -10 L 2.8125 -4.328125 C 2.8125 -3.554688 3.023438 -2.9375 3.453125 -2.46875 C 3.890625 -2 4.46875 -1.765625 5.1875 -1.765625 C 5.894531 -1.765625 6.460938 -2 6.890625 -2.46875 C 7.316406 -2.9375 7.53125 -3.554688 7.53125 -4.328125 L 7.53125 -10 L 9.59375 -10 Z M 9.59375 -4.328125 "/></g></g></g><g fill="#4797cd" fill-opacity="1"><g transform="translate(214.772304, 305.807612)"><g><path d="M 0.90625 0 L 0.90625 -10 L 5.78125 -10 C 6.289062 -10 6.753906 -9.921875 7.171875 -9.765625 C 7.597656 -9.617188 7.960938 -9.40625 8.265625 -9.125 C 8.566406 -8.851562 8.800781 -8.523438 8.96875 -8.140625 C 9.144531 -7.765625 9.234375 -7.347656 9.234375 -6.890625 C 9.234375 -6.265625 9.054688 -5.703125 8.703125 -5.203125 C 8.347656 -4.710938 7.875 -4.347656 7.28125 -4.109375 L 9.5 0 L 7.1875 0 L 5.234375 -3.828125 L 2.96875 -3.828125 L 2.96875 0 Z M 5.59375 -8.21875 L 2.96875 -8.21875 L 2.96875 -5.53125 L 5.59375 -5.53125 C 6.0625 -5.53125 6.4375 -5.648438 6.71875 -5.890625 C 7 -6.140625 7.140625 -6.46875 7.140625 -6.875 C 7.140625 -7.269531 7 -7.59375 6.71875 -7.84375 C 6.4375 -8.09375 6.0625 -8.21875 5.59375 -8.21875 Z M 5.59375 -8.21875 "/></g></g></g><g fill="#4797cd" fill-opacity="1"><g transform="translate(226.833704, 305.807612)"><g><path d="M -0.0625 0 L 4.0625 -10 L 6.453125 -10 L 10.515625 0 L 8.265625 0 L 7.25 -2.625 L 3.125 -2.625 L 2.09375 0 Z M 3.765625 -4.28125 L 6.625 -4.28125 L 5.21875 -7.96875 Z M 3.765625 -4.28125 "/></g></g></g><g fill="#4797cd" fill-opacity="1"><g transform="translate(239.651617, 305.807612)"><g><path d="M 0.90625 -10 L 2.875 -10 L 7.84375 -3.53125 L 7.84375 -10 L 9.78125 -10 L 9.78125 0 L 7.953125 0 L 2.859375 -6.6875 L 2.859375 0 L 0.90625 0 Z M 0.90625 -10 "/></g></g></g><g fill="#4797cd" fill-opacity="1"><g transform="translate(252.712196, 305.807612)"><g><path d="M 5.890625 -1.765625 C 6.421875 -1.765625 6.910156 -1.875 7.359375 -2.09375 C 7.816406 -2.3125 8.222656 -2.628906 8.578125 -3.046875 L 9.9375 -1.703125 C 9.5 -1.179688 8.953125 -0.757812 8.296875 -0.4375 C 7.648438 -0.113281 6.96875 0.0703125 6.25 0.125 L 6.09375 0.65625 C 6.507812 0.695312 6.835938 0.832031 7.078125 1.0625 C 7.328125 1.289062 7.453125 1.578125 7.453125 1.921875 C 7.453125 2.335938 7.273438 2.679688 6.921875 2.953125 C 6.566406 3.234375 6.113281 3.375 5.5625 3.375 C 5.21875 3.375 4.894531 3.316406 4.59375 3.203125 C 4.289062 3.097656 4.019531 2.941406 3.78125 2.734375 L 4.421875 2.046875 C 4.597656 2.171875 4.773438 2.269531 4.953125 2.34375 C 5.140625 2.414062 5.335938 2.453125 5.546875 2.453125 C 5.785156 2.453125 5.972656 2.40625 6.109375 2.3125 C 6.242188 2.21875 6.3125 2.082031 6.3125 1.90625 C 6.3125 1.75 6.238281 1.625 6.09375 1.53125 C 5.957031 1.4375 5.773438 1.390625 5.546875 1.390625 L 4.9375 1.390625 L 5.3125 0.109375 C 4.625 0.0546875 3.984375 -0.109375 3.390625 -0.390625 C 2.804688 -0.679688 2.300781 -1.050781 1.875 -1.5 C 1.457031 -1.957031 1.125 -2.484375 0.875 -3.078125 C 0.632812 -3.679688 0.515625 -4.320312 0.515625 -5 C 0.515625 -5.71875 0.648438 -6.394531 0.921875 -7.03125 C 1.203125 -7.664062 1.578125 -8.210938 2.046875 -8.671875 C 2.523438 -9.128906 3.09375 -9.488281 3.75 -9.75 C 4.40625 -10.019531 5.101562 -10.15625 5.84375 -10.15625 C 6.644531 -10.15625 7.421875 -9.984375 8.171875 -9.640625 C 8.921875 -9.304688 9.53125 -8.851562 10 -8.28125 L 8.59375 -6.890625 C 8.238281 -7.335938 7.820312 -7.675781 7.34375 -7.90625 C 6.875 -8.132812 6.375 -8.25 5.84375 -8.25 C 5.394531 -8.25 4.972656 -8.164062 4.578125 -8 C 4.179688 -7.832031 3.835938 -7.601562 3.546875 -7.3125 C 3.265625 -7.03125 3.039062 -6.691406 2.875 -6.296875 C 2.71875 -5.898438 2.640625 -5.46875 2.640625 -5 C 2.640625 -4.539062 2.722656 -4.113281 2.890625 -3.71875 C 3.054688 -3.320312 3.285156 -2.976562 3.578125 -2.6875 C 3.867188 -2.40625 4.210938 -2.179688 4.609375 -2.015625 C 5.003906 -1.847656 5.429688 -1.765625 5.890625 -1.765625 Z M 5.890625 -1.765625 "/></g></g></g><g fill="#4797cd" fill-opacity="1"><g transform="translate(265.330276, 305.807612)"><g><path d="M -0.0625 0 L 4.0625 -10 L 6.453125 -10 L 10.515625 0 L 8.265625 0 L 7.25 -2.625 L 3.125 -2.625 L 2.09375 0 Z M 3.765625 -4.28125 L 6.625 -4.28125 L 5.21875 -7.96875 Z M 3.765625 -4.28125 "/></g></g></g><g clip-path="url(#217e81d2e3)"><path fill="#32bada" d="M 144.984375 133.726562 C 145.046875 133.300781 145.082031 132.863281 145.082031 132.421875 C 145.082031 127.441406 141.042969 123.40625 136.0625 123.40625 C 131.082031 123.40625 127.046875 127.441406 127.046875 132.421875 C 127.046875 137.402344 131.082031 141.4375 136.0625 141.4375 C 138.425781 141.4375 140.574219 140.527344 142.183594 139.042969 L 224.890625 182.578125 C 217.273438 193.121094 206.082031 202.265625 189.710938 210.21875 C 166.128906 198.773438 153.3125 184.828125 146.382812 167.835938 L 180.789062 185.949219 C 180.730469 186.371094 180.695312 186.808594 180.695312 187.25 C 180.695312 192.230469 184.734375 196.265625 189.714844 196.265625 C 194.691406 196.265625 198.730469 192.230469 198.730469 187.25 C 198.730469 182.269531 194.691406 178.230469 189.714844 178.230469 C 187.351562 178.230469 185.203125 179.140625 183.59375 180.628906 L 143.519531 159.535156 L 136.394531 155.785156 C 137.011719 158.480469 137.726562 161.128906 138.550781 163.710938 C 145.351562 185.039062 159.441406 202.539062 188.425781 216.265625 L 189.710938 216.875 L 191 216.265625 C 209.480469 207.511719 221.898438 197.234375 230.242188 185.398438 C 231.414062 183.746094 232.503906 182.054688 233.515625 180.332031 L 228.210938 177.539062 Z M 144.984375 133.726562 " fill-opacity="1" fill-rule="nonzero"/></g><g clip-path="url(#6f9028e73c)"><path fill="#32bada" d="M 238.914062 150.964844 C 236.550781 150.964844 234.398438 151.875 232.789062 153.363281 L 141.933594 105.53125 L 189.710938 81.515625 L 241.0625 107.316406 C 241.046875 115.574219 240.902344 123.390625 240.429688 130.800781 L 198.636719 108.796875 C 198.695312 108.371094 198.730469 107.9375 198.730469 107.492188 C 198.730469 102.511719 194.691406 98.476562 189.710938 98.476562 C 184.734375 98.476562 180.695312 102.511719 180.695312 107.492188 C 180.695312 112.472656 184.730469 116.511719 189.710938 116.511719 C 192.078125 116.511719 194.226562 115.597656 195.835938 114.109375 L 239.910156 137.316406 L 245.609375 140.3125 C 245.847656 138.1875 246.042969 136.035156 246.214844 133.851562 C 246.90625 124.902344 247.074219 115.433594 247.074219 105.460938 L 247.074219 103.605469 L 225.214844 92.625 L 225.214844 73.078125 C 225.214844 53.503906 209.285156 37.574219 189.710938 37.574219 C 170.132812 37.574219 154.203125 53.503906 154.203125 73.078125 L 154.203125 92.628906 L 135.390625 102.082031 L 132.355469 103.605469 L 132.355469 105.460938 C 132.355469 106.070312 132.355469 106.679688 132.359375 107.289062 L 138.378906 110.453125 L 229.992188 158.683594 C 229.929688 159.105469 229.898438 159.539062 229.898438 159.980469 C 229.898438 164.960938 233.933594 168.996094 238.914062 168.996094 C 243.894531 168.996094 247.929688 164.960938 247.929688 159.980469 C 247.929688 155 243.894531 150.964844 238.914062 150.964844 Z M 160.214844 73.078125 C 160.214844 56.816406 173.445312 43.585938 189.710938 43.585938 C 205.972656 43.585938 219.203125 56.816406 219.203125 73.078125 L 219.203125 89.605469 L 189.710938 74.789062 L 160.214844 89.605469 Z M 160.214844 73.078125 " fill-opacity="1" fill-rule="nonzero"/></g></svg>